<svg width="32" height="24" viewBox="0 0 32 24" fill="none" xmlns="http://www.w3.org/2000/svg">
<path fill-rule="evenodd" clip-rule="evenodd" d="M16.0039 12.7059C18.7283 12.7059 21.1966 13.5812 23.0075 14.8052C24.7283 15.9699 26.1857 17.7007 26.1857 19.5628C26.1857 20.5849 25.7363 21.432 25.0279 22.0616C24.3617 22.656 23.4919 23.0414 22.5959 23.304C20.8054 23.8306 18.4475 24 16.0039 24C13.5603 24 11.2025 23.8306 9.41191 23.304C8.51591 23.0414 7.64609 22.656 6.97845 22.0616C6.273 21.4334 5.82209 20.5864 5.82209 19.5642C5.82209 17.7021 7.27954 15.9713 9.00027 14.8066C10.8112 13.5812 13.2795 12.7059 16.0039 12.7059ZM16.0039 15.5294C13.9094 15.5294 12.0141 16.2071 10.6657 17.1205C9.22718 18.0946 8.73118 19.0856 8.73118 19.5628C8.73118 19.992 9.24318 20.2602 9.70863 20.4296L10.0068 20.5285L10.2541 20.6019C11.6214 21.0028 13.6286 21.1765 16.0039 21.1765C18.1974 21.1765 20.0752 21.0282 21.4265 20.6908L21.8686 20.568L22.145 20.4833C22.6439 20.3181 23.2766 20.04 23.2766 19.5628C23.2766 19.0856 22.7806 18.0946 21.3421 17.1205C19.9952 16.2085 18.0985 15.5294 16.0039 15.5294ZM26.1857 14.1176C27.7043 14.1176 29.0832 14.6047 30.1028 15.2936C31.0337 15.9247 32.0039 16.9736 32.0039 18.2527C32.0039 20.1374 30.1174 20.8122 28.4214 21.048L27.985 21.1002L27.5646 21.1355C27.4978 21.1398 27.4308 21.1435 27.3639 21.1468C27.5414 20.6598 27.6403 20.1304 27.6403 19.5628C27.6397 19.1404 27.5874 18.7196 27.4846 18.3092C28.0461 18.2668 28.5072 18.1962 28.8505 18.096C29.0017 18.0508 28.865 17.9125 28.705 17.7925L28.5494 17.6824L28.4388 17.6104C28.0023 17.321 27.51 17.1203 26.9915 17.0202C26.4388 15.9473 25.5894 15.0184 24.6846 14.2772C25.1775 14.1713 25.6809 14.1178 26.1857 14.1176ZM5.82209 14.1176C6.34136 14.1176 6.84463 14.1741 7.32318 14.2772C6.41845 15.0184 5.569 15.9473 5.01627 17.0202C4.49786 17.1204 4.00561 17.3212 3.569 17.6104L3.38282 17.7346C3.19809 17.8645 2.98136 18.0452 3.15736 18.096C3.50063 18.1962 3.96172 18.2682 4.52463 18.3092C4.42064 18.7194 4.3679 19.1403 4.36754 19.5628C4.36754 20.1304 4.46645 20.6598 4.64391 21.1468L4.23663 21.1186L3.80609 21.0762C2.05772 20.8687 0.00390625 20.2193 0.00390625 18.2527C0.00390625 16.9751 0.972633 15.9247 1.905 15.2936C3.05825 14.5265 4.42395 14.1164 5.82209 14.1176ZM25.4585 5.64706C26.4229 5.64706 27.3478 6.01891 28.0298 6.6808C28.7117 7.34269 29.0948 8.24041 29.0948 9.17647C29.0948 10.1125 28.7117 11.0102 28.0298 11.6721C27.3478 12.334 26.4229 12.7059 25.4585 12.7059C24.494 12.7059 23.5691 12.334 22.8872 11.6721C22.2052 11.0102 21.8221 10.1125 21.8221 9.17647C21.8221 8.24041 22.2052 7.34269 22.8872 6.6808C23.5691 6.01891 24.494 5.64706 25.4585 5.64706ZM6.54936 5.64706C7.51378 5.64706 8.43871 6.01891 9.12066 6.6808C9.80261 7.34269 10.1857 8.24041 10.1857 9.17647C10.1857 10.1125 9.80261 11.0102 9.12066 11.6721C8.43871 12.334 7.51378 12.7059 6.54936 12.7059C5.58494 12.7059 4.66001 12.334 3.97806 11.6721C3.29611 11.0102 2.913 10.1125 2.913 9.17647C2.913 8.24041 3.29611 7.34269 3.97806 6.6808C4.66001 6.01891 5.58494 5.64706 6.54936 5.64706ZM16.0039 0C17.547 0 19.0269 0.594956 20.118 1.65399C21.2091 2.71301 21.8221 4.14937 21.8221 5.64706C21.8221 7.14475 21.2091 8.5811 20.118 9.64013C19.0269 10.6992 17.547 11.2941 16.0039 11.2941C14.4608 11.2941 12.981 10.6992 11.8898 9.64013C10.7987 8.5811 10.1857 7.14475 10.1857 5.64706C10.1857 4.14937 10.7987 2.71301 11.8898 1.65399C12.981 0.594956 14.4608 0 16.0039 0ZM25.4585 8.47059C25.2656 8.47059 25.0806 8.54496 24.9442 8.67734C24.8078 8.80971 24.7312 8.98926 24.7312 9.17647C24.7312 9.36368 24.8078 9.54323 24.9442 9.67561C25.0806 9.80798 25.2656 9.88235 25.4585 9.88235C25.6513 9.88235 25.8363 9.80798 25.9727 9.67561C26.1091 9.54323 26.1857 9.36368 26.1857 9.17647C26.1857 8.98926 26.1091 8.80971 25.9727 8.67734C25.8363 8.54496 25.6513 8.47059 25.4585 8.47059ZM6.54936 8.47059C6.35648 8.47059 6.17149 8.54496 6.0351 8.67734C5.89871 8.80971 5.82209 8.98926 5.82209 9.17647C5.82209 9.36368 5.89871 9.54323 6.0351 9.67561C6.17149 9.80798 6.35648 9.88235 6.54936 9.88235C6.74225 9.88235 6.92723 9.80798 7.06362 9.67561C7.20001 9.54323 7.27663 9.36368 7.27663 9.17647C7.27663 8.98926 7.20001 8.80971 7.06362 8.67734C6.92723 8.54496 6.74225 8.47059 6.54936 8.47059ZM16.0039 2.82353C15.2324 2.82353 14.4924 3.12101 13.9469 3.65052C13.4013 4.18004 13.0948 4.89821 13.0948 5.64706C13.0948 6.39591 13.4013 7.11408 13.9469 7.6436C14.4924 8.17311 15.2324 8.47059 16.0039 8.47059C16.7754 8.47059 17.5154 8.17311 18.0609 7.6436C18.6065 7.11408 18.913 6.39591 18.913 5.64706C18.913 4.89821 18.6065 4.18004 18.0609 3.65052C17.5154 3.12101 16.7754 2.82353 16.0039 2.82353Z" fill="black"/>
</svg>
