<svg width="22" height="24" viewBox="0 0 22 24" fill="none" xmlns="http://www.w3.org/2000/svg">
<path fill-rule="evenodd" clip-rule="evenodd" d="M4.97165 6.00748C4.97165 5.21857 5.12768 4.43738 5.43083 3.70852C5.73398 2.97966 6.17831 2.3174 6.73845 1.75955C7.2986 1.2017 7.96359 0.759196 8.69546 0.457292C9.42733 0.155388 10.2117 0 11.0039 0C11.7961 0 12.5805 0.155388 13.3124 0.457292C14.0442 0.759196 14.7092 1.2017 15.2694 1.75955C15.8295 2.3174 16.2738 2.97966 16.577 3.70852C16.8801 4.43738 17.0362 5.21857 17.0362 6.00748C17.0362 7.60076 16.4006 9.12879 15.2694 10.2554C14.1381 11.382 12.6038 12.015 11.0039 12.015C9.40405 12.015 7.86972 11.382 6.73845 10.2554C5.60719 9.12879 4.97165 7.60076 4.97165 6.00748ZM11.0039 2.12029C9.96871 2.12029 8.97591 2.52983 8.24391 3.25882C7.51191 3.98781 7.10068 4.97653 7.10068 6.00748C7.10068 7.03843 7.51191 8.02715 8.24391 8.75614C8.97591 9.48513 9.96871 9.89468 11.0039 9.89468C12.0391 9.89468 13.0319 9.48513 13.7639 8.75614C14.4959 8.02715 14.9071 7.03843 14.9071 6.00748C14.9071 4.97653 14.4959 3.98781 13.7639 3.25882C13.0319 2.52983 12.0391 2.12029 11.0039 2.12029ZM5.32649 16.2555C4.47951 16.2555 3.66721 16.5906 3.06831 17.1871C2.4694 17.7835 2.13294 18.5925 2.13294 19.436V21.1152C2.13294 21.1407 2.15139 21.1633 2.17694 21.1675C8.02326 22.1174 13.986 22.1174 19.8309 21.1675C19.8433 21.1655 19.8545 21.1591 19.8626 21.1495C19.8707 21.1399 19.875 21.1278 19.8749 21.1152V19.436C19.8749 18.5925 19.5384 17.7835 18.9395 17.1871C18.3406 16.5906 17.5283 16.2555 16.6813 16.2555H16.1987C16.1607 16.2552 16.1229 16.261 16.0866 16.2725L14.8589 16.6725C12.354 17.487 9.65386 17.487 7.14894 16.6725L5.91978 16.2725C5.88445 16.2612 5.84758 16.2555 5.81049 16.2555H5.32649ZM0.00390625 19.436C0.00390625 18.0301 0.564676 16.6819 1.56285 15.6878C2.56103 14.6937 3.91485 14.1353 5.32649 14.1353H5.80907C6.07165 14.1353 6.33281 14.1777 6.5812 14.2568L7.81036 14.6568C9.88551 15.3314 12.1223 15.3314 14.1975 14.6568L15.4266 14.2568C15.675 14.1762 15.9362 14.1353 16.1973 14.1353H16.6813C18.093 14.1353 19.4468 14.6937 20.445 15.6878C21.4431 16.6819 22.0039 18.0301 22.0039 19.436V21.1152C22.0039 22.181 21.2289 23.0885 20.1729 23.2596C14.1004 24.2468 7.90737 24.2468 1.83487 23.2596C1.3238 23.1767 0.858984 22.9155 0.523545 22.5226C0.188105 22.1298 0.00391413 21.6309 0.00390625 21.1152V19.436Z" fill="black"/>
</svg>
