<svg width="26" height="26" viewBox="0 0 26 26" fill="none" xmlns="http://www.w3.org/2000/svg">
<path d="M13 25C19.6274 25 25 19.6274 25 13C25 6.37258 19.6274 1 13 1C6.37258 1 1 6.37258 1 13C1 19.6274 6.37258 25 13 25Z" stroke="black" stroke-width="1.5" stroke-linecap="round" stroke-linejoin="round"/>
<path d="M12.0789 9.98362L17.0029 8.99829L16.0176 13.9223C15.9145 14.4384 15.6609 14.9124 15.2889 15.2847C14.9168 15.657 14.443 15.9108 13.9269 16.0143L9.00293 16.9983L9.98826 12.0743C10.0916 11.5584 10.3453 11.0847 10.7173 10.7127C11.0893 10.3407 11.5631 10.087 12.0789 9.98362Z" stroke="black" stroke-width="1.5" stroke-linecap="round" stroke-linejoin="round"/>
</svg>
