<svg width="24" height="24" viewBox="0 0 24 24" fill="none" xmlns="http://www.w3.org/2000/svg">
<path d="M0 2.2471C0 1.00504 1.00654 0 2.2501 0H3.75016C4.99072 0 5.99876 1.00504 5.99876 2.2471V21.7209C5.99876 22.9615 4.99072 23.9665 3.74866 23.9665H2.2486C1.00654 23.9665 0 22.9615 0 21.7209V2.2471ZM2.2501 1.49706C2.05118 1.49706 1.8604 1.57609 1.71974 1.71674C1.57909 1.8574 1.50006 2.04818 1.50006 2.2471V21.7209C1.50046 21.9196 1.57966 22.11 1.72027 22.2503C1.86089 22.3907 2.05144 22.4695 2.2501 22.4695H3.75016C3.94882 22.4691 4.13921 22.3899 4.27955 22.2493C4.41988 22.1086 4.49869 21.9181 4.49869 21.7194V2.2486C4.49869 2.04968 4.41967 1.8589 4.27902 1.71824C4.13836 1.57759 3.94758 1.49856 3.74866 1.49856L2.2501 1.49706ZM7.49732 2.2471C7.49732 1.00504 8.50537 0 9.74742 0H11.2475C12.4895 0 13.4961 1.00504 13.4961 2.2471V21.7209C13.4961 22.9615 12.4895 23.9665 11.246 23.9665H9.74592C8.50537 23.9665 7.49732 22.9615 7.49732 21.7209V2.2471ZM9.74742 1.49706C9.5485 1.49706 9.35773 1.57609 9.21707 1.71674C9.07641 1.8574 8.99739 2.04818 8.99739 2.2471V21.7209C8.99779 21.9196 9.07698 22.11 9.2176 22.2503C9.35821 22.3907 9.54876 22.4695 9.74742 22.4695H11.2475C11.4464 22.4695 11.6372 22.3904 11.7778 22.2498C11.9185 22.1091 11.9975 21.9184 11.9975 21.7194V2.2486C11.9975 2.04968 11.9185 1.8589 11.7778 1.71824C11.6372 1.57759 11.4464 1.49856 11.2475 1.49856L9.74742 1.49706ZM20.5779 6.23577C20.5094 5.93882 20.3812 5.65889 20.2012 5.41295C20.0213 5.16702 19.7932 4.96021 19.5309 4.80507C19.2686 4.64992 18.9775 4.54968 18.6753 4.51043C18.3731 4.47117 18.066 4.49372 17.7728 4.5767L16.6552 4.89171C16.1096 5.04606 15.6424 5.40102 15.3475 5.88538C15.0526 6.36975 14.9518 6.9477 15.0652 7.50332L18.0698 22.204C18.1312 22.5019 18.2523 22.7843 18.4259 23.0341C18.5995 23.2838 18.822 23.4958 19.0798 23.6572C19.3377 23.8186 19.6256 23.926 19.9261 23.973C20.2267 24.02 20.5336 24.0055 20.8284 23.9305L22.306 23.5555C23.491 23.2555 24.217 22.0644 23.944 20.8749L20.5779 6.23577ZM18.1808 6.01826C18.2785 5.99043 18.3809 5.98276 18.4817 5.9957C18.5825 6.00865 18.6796 6.04195 18.7672 6.09357C18.8547 6.1452 18.9308 6.21408 18.9909 6.29602C19.0511 6.37797 19.0939 6.47128 19.1168 6.57028L22.4815 21.2109C22.5247 21.4015 22.4918 21.6014 22.3898 21.7681C22.2878 21.9348 22.1248 22.0551 21.9354 22.1035L20.4579 22.4785C20.3597 22.5035 20.2574 22.5083 20.1573 22.4927C20.0572 22.4771 19.9613 22.4414 19.8753 22.3877C19.7894 22.334 19.7152 22.2635 19.6573 22.1803C19.5994 22.0972 19.5589 22.0032 19.5383 21.9039L16.5337 7.20331C16.4963 7.01826 16.53 6.8259 16.6282 6.66463C16.7263 6.50335 16.8817 6.38503 17.0632 6.33327L18.1808 6.01826Z" fill="black"/>
</svg>
