<svg width="24" height="24" viewBox="0 0 24 24" fill="none" xmlns="http://www.w3.org/2000/svg">
<path d="M2.25205 0C1.007 0 0.00195312 1.00504 0.00195312 2.2471V21.7194C0.00195312 22.9615 1.0085 23.9665 2.25205 23.9665H3.75212C4.99267 23.9665 6.00071 22.9615 6.00071 21.7194V2.2471C6.00071 1.00504 4.99267 0 3.75062 0H2.25205ZM9.74937 0C8.50732 0 7.49928 1.00504 7.49928 2.2471V21.7194C7.49928 22.9615 8.50732 23.9665 9.74937 23.9665H11.2494C12.4915 23.9665 13.498 22.9615 13.498 21.7194V2.2471C13.498 1.00654 12.4915 0 11.2479 0H9.74937ZM20.5798 6.23577C20.5113 5.93882 20.3832 5.65889 20.2032 5.41295C20.0232 5.16702 19.7951 4.96021 19.5328 4.80507C19.2705 4.64992 18.9794 4.54968 18.6772 4.51043C18.375 4.47117 18.068 4.49372 17.7747 4.5767L16.6572 4.89171C16.1112 5.04607 15.6438 5.40126 15.3489 5.88595C15.054 6.37065 14.9533 6.94898 15.0671 7.50482L18.0717 22.204C18.1331 22.5019 18.2543 22.7843 18.4279 23.0341C18.6015 23.2838 18.8239 23.4958 19.0818 23.6572C19.3396 23.8186 19.6275 23.926 19.9281 23.973C20.2286 24.02 20.5356 24.0055 20.8304 23.9305L22.3079 23.5555C23.493 23.2555 24.219 22.0644 23.946 20.8749L20.5798 6.23577Z" fill="black"/>
</svg>
