<svg width="32" height="24" viewBox="0 0 32 24" fill="none" xmlns="http://www.w3.org/2000/svg">
<path d="M16.0039 12.7059C18.7283 12.7059 21.1966 13.5812 23.0075 14.8052C24.7283 15.9699 26.1857 17.7007 26.1857 19.5628C26.1857 20.5849 25.7363 21.432 25.0279 22.0616C24.3617 22.656 23.4919 23.0414 22.5959 23.304C20.8054 23.8306 18.4475 24 16.0039 24C13.5603 24 11.2025 23.8306 9.41191 23.304C8.51591 23.0414 7.64609 22.656 6.97845 22.0616C6.273 21.4334 5.82209 20.5864 5.82209 19.5642C5.82209 17.7021 7.27954 15.9713 9.00027 14.8066C10.8112 13.5812 13.2795 12.7059 16.0039 12.7059ZM26.1857 14.1176C27.7043 14.1176 29.0832 14.6047 30.1028 15.2936C31.0337 15.9247 32.0039 16.9736 32.0039 18.2527C32.0039 18.9826 31.6766 19.5882 31.1894 20.0216C30.7443 20.4184 30.1945 20.6513 29.6926 20.7981C29.009 20.9986 28.2017 21.1016 27.3639 21.1468C27.5414 20.6598 27.6403 20.1304 27.6403 19.5628C27.6403 17.3958 26.2454 15.5548 24.6846 14.2772C25.1775 14.1713 25.6809 14.1178 26.1857 14.1176ZM5.82209 14.1176C6.34136 14.1176 6.84464 14.1741 7.32318 14.2772C5.76391 15.5548 4.36754 17.3958 4.36754 19.5628C4.36754 20.1304 4.46645 20.6598 4.64391 21.1468C3.80609 21.1016 3.00027 20.9986 2.31518 20.7981C1.81336 20.6513 1.26354 20.4184 0.816999 20.0216C0.560822 19.7993 0.355957 19.5268 0.215834 19.2222C0.0757103 18.9176 0.00349059 18.5877 0.00390805 18.2541C0.00390805 16.9765 0.972635 15.9261 1.905 15.2951C3.05809 14.5274 4.4238 14.1169 5.82209 14.1176ZM25.4585 5.64706C26.4229 5.64706 27.3478 6.01891 28.0298 6.6808C28.7117 7.34269 29.0948 8.24041 29.0948 9.17647C29.0948 10.1125 28.7117 11.0102 28.0298 11.6721C27.3478 12.334 26.4229 12.7059 25.4585 12.7059C24.494 12.7059 23.5691 12.334 22.8872 11.6721C22.2052 11.0102 21.8221 10.1125 21.8221 9.17647C21.8221 8.24041 22.2052 7.34269 22.8872 6.6808C23.5691 6.01891 24.494 5.64706 25.4585 5.64706ZM6.54936 5.64706C7.51379 5.64706 8.43871 6.01891 9.12066 6.6808C9.80261 7.34269 10.1857 8.24041 10.1857 9.17647C10.1857 10.1125 9.80261 11.0102 9.12066 11.6721C8.43871 12.334 7.51379 12.7059 6.54936 12.7059C5.58494 12.7059 4.66002 12.334 3.97807 11.6721C3.29611 11.0102 2.913 10.1125 2.913 9.17647C2.913 8.24041 3.29611 7.34269 3.97807 6.6808C4.66002 6.01891 5.58494 5.64706 6.54936 5.64706ZM16.0039 0C17.547 0 19.0269 0.594956 20.118 1.65399C21.2091 2.71301 21.8221 4.14937 21.8221 5.64706C21.8221 7.14475 21.2091 8.5811 20.118 9.64013C19.0269 10.6992 17.547 11.2941 16.0039 11.2941C14.4608 11.2941 12.981 10.6992 11.8898 9.64013C10.7987 8.5811 10.1857 7.14475 10.1857 5.64706C10.1857 4.14937 10.7987 2.71301 11.8898 1.65399C12.981 0.594956 14.4608 0 16.0039 0Z" fill="black"/>
</svg>
