<svg width="22" height="24" viewBox="0 0 22 24" fill="none" xmlns="http://www.w3.org/2000/svg">
<path d="M11.0039 0C9.59227 0 8.23845 0.575397 7.24027 1.59961C6.2421 2.62382 5.68133 4.01296 5.68133 5.46141C5.68133 6.90987 6.2421 8.299 7.24027 9.32322C8.23845 10.3474 9.59227 10.9228 11.0039 10.9228C12.4155 10.9228 13.7694 10.3474 14.7675 9.32322C15.7657 8.299 16.3265 6.90987 16.3265 5.46141C16.3265 4.01296 15.7657 2.62382 14.7675 1.59961C13.7694 0.575397 12.4155 0 11.0039 0ZM5.32649 13.8356C3.91485 13.8356 2.56103 14.411 1.56285 15.4352C0.564676 16.4594 0.00390625 17.8485 0.00390625 19.297V21.0272C0.00390625 22.1253 0.778874 23.0603 1.83487 23.2365C7.90687 24.2545 14.1009 24.2545 20.1729 23.2365C20.684 23.1511 21.1488 22.882 21.4843 22.4772C21.8197 22.0725 22.0039 21.5585 22.0039 21.0272V19.297C22.0039 17.8485 21.4431 16.4594 20.445 15.4352C19.4468 14.411 18.093 13.8356 16.6813 13.8356H16.1987C15.9362 13.8356 15.675 13.8793 15.4266 13.9608L14.1975 14.373C12.1223 15.068 9.88551 15.068 7.81036 14.373L6.5812 13.9608C6.33232 13.8777 6.07221 13.8355 5.81049 13.8356H5.32649Z" fill="black"/>
</svg>
