<?xml version="1.0" encoding="UTF-8"?>
<svg id="Layer_1" data-name="Layer 1" xmlns="http://www.w3.org/2000/svg" viewBox="0 0 2000 2000">
  <defs>
    <style>
      .cls-1 {
        fill: #6b8e23;
      }

      .cls-1, .cls-2, .cls-3 {
        stroke-width: 0px;
      }

      .cls-2 {
        fill: orange;
      }

      .cls-3 {
        fill: #426006;
      }
    </style>
  </defs>
  <path class="cls-1" d="m1096.51,925.21c0,13.57-3.48,26.33-9.59,37.43-6.19-1.58-12.69-2.43-19.38-2.43h-164.06v44.07l-48.74,35.52v-192.29h164.06c21.46,0,40.89,8.7,54.95,22.75,14.05,14.06,22.75,33.49,22.75,54.95Z"/>
  <path class="cls-3" d="m1086.92,962.64c-13.22,24.02-38.77,40.28-68.12,40.28h-113.46l-1.86,1.35v-44.07h164.06c6.69,0,13.18.85,19.38,2.43Z"/>
  <path class="cls-2" d="m1145.25,1037.91c0,42.92-34.79,77.71-77.7,77.71h-113.46l-50.6,36.87v-148.22l1.86-1.35h113.46c29.35,0,54.9-16.27,68.12-40.28,13.67,3.51,25.88,10.65,35.56,20.32,14.06,14.06,22.76,33.49,22.76,54.95Z"/>
</svg>